# xmcd
#
# Track frame offsets: 
#        150
#        12700
#        27990
#        41552
#        55282
#        69170
#        82195
#        93972
#        108877
#        120307
#        133945
#        148157
#        163817
#        177207
#        187927
#        230270
#        247777
#        260972
#        273655
#        286492
#        300650
#        313250
#        325307
#        336985
#
# Disc length: 4647 seconds
#
# Revision: 6
# Processed by: cddbd v1.5.2PL0 Copyright (c) Steve Scherf et al.
# Submitted via: ExactAudioCopy v1.1
#
DISCID=65122518
DTITLE=Jimmie Rodgers - The Singing Brakeman - Disc 6
DYEAR=1992
DGENRE=Country
TTITLE0=Sweet Mama, Hurry Home (mono)
TTITLE1=Blue Yodel No. 12 (Barefoot Blues) (mono)
TTITLE2=Dreaming With Tears In My Eyes (master - take 1) (mono)
TTITLE3=The Cowhand's Last Ride (mono)
TTITLE4=I'm Free From The Chain Gang Now (mono)
TTITLE5=Dreaming With Tears In My Eyes (alt - take 2) (mono)
TTITLE6=Yodeling My Way Back Home (mono)
TTITLE7=Jimmie Rodger's Last Blue Yodel (The Women Make A Fool Out Of 
TTITLE7=Me) (mono)
TTITLE8=The Yodeling Ranger (mono)
TTITLE9=Old Pal Of My Heart (mono)
TTITLE10=Old Love Letters (mono)
TTITLE11=Mississippi Delta Blues (mono)
TTITLE12=Somewhere Below The Mason Dixon Line (mono)
TTITLE13=Years Ago (mono)
TTITLE14=The Singing Brakeman (film soundtrack) (mono)
TTITLE15=The Pullman Porters (mono)
TTITLE16=Jimmie Rodgers and The Rainbow Ranch Boys - In the Jailhouse No
TTITLE16=w No. 2 (overdubbed) (mono)
TTITLE17=Jimmie Rodgers and The Rainbow Ranch Boys - Blue Yodel No. 8 (M
TTITLE17=ule Skinner Blues) (overdubbed) (mono)
TTITLE18=Jimmie Rodgers and The Rainbow Ranch Boys - Peach Picking Time 
TTITLE18=Down In Georgia (overdubbed) (mono)
TTITLE19=Jimmie Rodgers and The Rainbow Ranch Boys - Mother, The Queen O
TTITLE19=f My Heart (overdubbed) (mono)
TTITLE20=Jimmie Rodgers and The Rainbow Ranch Boys - Never No Mo' Blues 
TTITLE20=(overdubbed) (mono)
TTITLE21=Jimmie Rodgers and The Rainbow Ranch Boys - Blue Yodel No. 1 (T
TTITLE21=For Texas) (overdubbed) (mono)
TTITLE22=Jimmie Rodgers and The Rainbow Ranch Boys - Daddy And Home (ove
TTITLE22=rdubbed) (mono)
TTITLE23=Jimmie Rodgers and The Rainbow Ranch Boys - Memphis Yodel (over
TTITLE23=dubbed) (mono)
EXTD=Bear Family Records BCD15540\n6 CD Boxed Set with book/discograph
EXTD=y\n1992Recorded Aug 1927 - May 1933\nTitles include release year.
EXTD=\nSelections #17-24 are overdubbed versions-\nOverdub by Hank Sno
EXTD=w's Rainbow Ranch Boys. YEAR: 1992
EXTT0=
EXTT1=
EXTT2=
EXTT3=
EXTT4=
EXTT5=
EXTT6=
EXTT7=
EXTT8=
EXTT9=
EXTT10=
EXTT11=
EXTT12=
EXTT13=
EXTT14=
EXTT15=
EXTT16=
EXTT17=
EXTT18=
EXTT19=
EXTT20=
EXTT21=
EXTT22=
EXTT23=
PLAYORDER=
